<svg preserveAspectRatio="none" width="100%" height="100%" overflow="visible" style="display: block;" viewBox="0 0 45.1765 45.1765" fill="none" xmlns="http://www.w3.org/2000/svg" xmlns:xlink="http://www.w3.org/1999/xlink">
<g id="gummy bear day">
<g id="Vector">
<path d="M27.0558 2.80424C27.0742 2.79032 27.0925 2.7764 27.1109 2.76247L27.2045 2.69515C28.024 2.09608 29.081 1.79265 30.1029 1.82601C31.2087 1.8559 32.2565 2.31572 33.0131 3.10318C35.1052 5.2477 34.4263 8.4027 32.3014 10.2844C32.3174 11.1418 32.3549 12.0067 32.2729 12.8678C32.0977 14.7052 31.1421 15.8876 31.5856 17.777C31.8265 19.0693 33.4049 19.5577 34.4726 20.2175C37.381 22.0147 36.8496 25.2484 35.133 27.7152C34.7116 28.2421 34.482 28.5587 34.1074 29.0985C32.7695 32.035 33.3142 31.7051 35.3265 33.9449C38.0258 36.949 37.8591 42.159 33.5539 43.6888C30.6269 44.7288 24.6075 44.1625 24.247 40.3108C23.3017 40.2195 22.7455 40.222 21.795 40.2953C21.3726 42.3586 20.171 43.274 18.1756 43.8066C12.9699 45.1961 7.75866 42.6301 9.09425 36.7891C9.68508 33.9617 11.9462 33.3134 12.6752 31.4246C12.512 30.4412 12.3799 30.0896 11.9683 29.1734C11.9912 29.1952 11.0312 27.946 10.9369 27.8305C9.94981 26.4066 9.26361 24.7357 9.50224 23.0229C9.83938 20.6028 11.8321 20.1323 13.5028 18.9891C15.2817 17.772 14.1526 15.1598 13.8612 13.548C13.6608 12.4807 13.6191 11.3907 13.7374 10.3118C12.795 9.41481 12.2199 8.78467 11.8993 7.51158C11.3031 5.14352 12.3667 2.49002 15.012 1.94861C16.5173 1.64042 17.7026 2.00405 18.9648 2.79151C21.7301 1.42163 24.296 1.61342 27.0558 2.80424Z" fill="var(--fill-0, #F3A9B7)"/>
<use xlink:href="#stroke0_0_228" transform="translate(15.7381 4.10609) scale(0.00446691) rotate(-65.9987)"/>
<use xlink:href="#stroke0_0_228" transform="translate(17.0149 3.73026) scale(0.00457419) rotate(123.511)"/>
<use xlink:href="#stroke0_0_228" transform="translate(16.253 4.10513) scale(0.00419313) rotate(124.493)"/>
<use xlink:href="#stroke0_0_228" transform="translate(14.8769 5.83344) scale(0.00402378) rotate(-132.31)"/>
<use xlink:href="#stroke0_0_228" transform="translate(14.1509 6.29076) scale(0.00396022) rotate(-100.59)"/>
<use xlink:href="#stroke0_0_228" transform="translate(14.9747 6.92109) scale(0.00387937) rotate(-169.601)"/>
<use xlink:href="#stroke0_0_228" transform="translate(15.4155 6.26993) scale(0.00450319) rotate(98.5069)"/>
<use xlink:href="#stroke0_0_228" transform="translate(15.2469 6.72807) scale(0.00391957) rotate(69.5185)"/>
<use xlink:href="#stroke0_0_228" transform="translate(31.4438 7.97209) scale(0.00392749) rotate(-173.924)"/>
<use xlink:href="#stroke0_0_228" transform="translate(31.5252 7.52496) scale(0.00408452) rotate(-156.573)"/>
<use xlink:href="#stroke0_0_228" transform="translate(30.5375 6.09956) scale(0.00386781) rotate(-53.5084)"/>
<use xlink:href="#stroke0_0_228" transform="translate(30.2383 5.52545) scale(0.00425878) rotate(-58.7085)"/>
<use xlink:href="#stroke0_0_228" transform="translate(30.2228 5.38521) scale(0.00436794) rotate(-93.1642)"/>
<use xlink:href="#stroke0_0_228" transform="translate(29.3599 3.93957) scale(0.00423312) rotate(-28.7534)"/>
<use xlink:href="#stroke0_0_228" transform="translate(29.7773 5.24002) scale(0.00448471) rotate(-135.855)"/>
<use xlink:href="#stroke0_0_228" transform="translate(27.2673 7.48615) scale(0.00441709) rotate(127.514)"/>
<use xlink:href="#stroke0_0_228" transform="translate(25.2262 8.6112) scale(0.00395036) rotate(-117.636)"/>
<use xlink:href="#stroke0_0_228" transform="translate(26.1238 8.45395) scale(0.00395489) rotate(140.319)"/>
<use xlink:href="#stroke0_0_228" transform="translate(25.1278 7.92086) scale(0.00462677) rotate(29.994)"/>
<use xlink:href="#stroke0_0_228" transform="translate(25.253 8.81559) scale(0.00403488) rotate(-18.623)"/>
<use xlink:href="#stroke0_0_228" transform="translate(20.0258 8.51895) scale(0.0040706) rotate(-118.874)"/>
<use xlink:href="#stroke0_0_228" transform="translate(19.8551 6.76554) scale(0.0045882) rotate(59.0966)"/>
<use xlink:href="#stroke0_0_228" transform="translate(19.0382 9.54408) scale(0.00458172) rotate(-127.011)"/>
<use xlink:href="#stroke0_0_228" transform="translate(19.6745 10.1141) scale(0.00418215) rotate(-143.271)"/>
<use xlink:href="#stroke0_0_228" transform="translate(19.4 9.67996) scale(0.00448982) rotate(-76.2244)"/>
<use xlink:href="#stroke0_0_228" transform="translate(26.5525 11.7329) scale(0.003996) rotate(137.818)"/>
<use xlink:href="#stroke0_0_228" transform="translate(24.2752 12.2192) scale(0.00427867) rotate(-94.4943)"/>
<use xlink:href="#stroke0_0_228" transform="translate(25.1673 11.6002) scale(0.00439963) rotate(161.117)"/>
<use xlink:href="#stroke0_0_228" transform="translate(23.094 12.0408) scale(0.00448634) rotate(-114.322)"/>
<use xlink:href="#stroke0_0_228" transform="translate(22.1377 11.6529) scale(0.00384104) rotate(-91.8616)"/>
<use xlink:href="#stroke0_0_228" transform="translate(22.8877 10.5372) scale(0.00395011) rotate(106.256)"/>
<use xlink:href="#stroke0_0_228" transform="translate(22.3926 11.8425) scale(0.00446506) rotate(160.165)"/>
<use xlink:href="#stroke0_0_228" transform="translate(21.8123 11.8254) scale(0.00438343) rotate(137.603)"/>
<use xlink:href="#stroke0_0_228" transform="translate(20.9265 11.6229) scale(0.00393513) rotate(96.8383)"/>
<use xlink:href="#stroke0_0_228" transform="translate(19.045 12.3515) scale(0.00387639) rotate(-18.5978)"/>
<use xlink:href="#stroke0_0_228" transform="translate(19.1511 14.1999) scale(0.00399639) rotate(-103.237)"/>
<use xlink:href="#stroke0_0_228" transform="translate(18.4603 13.7614) scale(0.00412563) rotate(-27.2252)"/>
<use xlink:href="#stroke0_0_228" transform="translate(19.9887 14.009) scale(0.0043267) rotate(81.7075)"/>
<use xlink:href="#stroke0_0_228" transform="translate(19.5874 16.3923) scale(0.0040734) rotate(-160.561)"/>
<use xlink:href="#stroke0_0_228" transform="translate(18.5786 16.3591) scale(0.00423275) rotate(-56.3614)"/>
<use xlink:href="#stroke0_0_228" transform="translate(19.3404 17.0427) scale(0.00388121) rotate(-75.5619)"/>
<use xlink:href="#stroke0_0_228" transform="translate(20.1533 16.2554) scale(0.00383964) rotate(11.2747)"/>
<use xlink:href="#stroke0_0_228" transform="translate(20.244 17.8035) scale(0.00406822) rotate(-64.6898)"/>
<use xlink:href="#stroke0_0_228" transform="translate(20.8178 17.6018) scale(0.00461504) rotate(-46.2582)"/>
<use xlink:href="#stroke0_0_228" transform="translate(22.2111 18.4634) scale(0.00407865) rotate(-108.474)"/>
<use xlink:href="#stroke0_0_228" transform="translate(22.9402 16.5581) scale(0.00458571) rotate(19.3617)"/>
<use xlink:href="#stroke0_0_228" transform="translate(24.6789 18.2264) scale(0.00454737) rotate(-165.475)"/>
<use xlink:href="#stroke0_0_228" transform="translate(24.6655 16.1737) scale(0.00383621) rotate(33.2516)"/>
<use xlink:href="#stroke0_0_228" transform="translate(24.491 16.0981) scale(0.00453354) rotate(-16.7836)"/>
<use xlink:href="#stroke0_0_228" transform="translate(25.0662 15.8345) scale(0.00412515) rotate(-27.6612)"/>
<use xlink:href="#stroke0_0_228" transform="translate(27.2823 16.0263) scale(0.00462605) rotate(164.777)"/>
<use xlink:href="#stroke0_0_228" transform="translate(27.7727 14.5701) scale(0.00442263) rotate(116.41)"/>
<use xlink:href="#stroke0_0_228" transform="translate(22.8241 13.9661) scale(0.00444568) rotate(-103.989)"/>
<use xlink:href="#stroke0_0_228" transform="translate(23.4313 13.851) scale(0.00441873) rotate(171.619)"/>
<use xlink:href="#stroke0_0_228" transform="translate(22.4472 14.8729) scale(0.00402781) rotate(-135.405)"/>
<use xlink:href="#stroke0_0_228" transform="translate(23.6749 14.9392) scale(0.00431357) rotate(160.08)"/>
<use xlink:href="#stroke0_0_228" transform="translate(23.9136 15.5262) scale(0.00435383) rotate(-159.37)"/>
<use xlink:href="#stroke0_0_228" transform="translate(18.9443 18.5555) scale(0.00439632) rotate(87.5843)"/>
<use xlink:href="#stroke0_0_228" transform="translate(19.8211 19.4138) scale(0.00403296) rotate(121.911)"/>
<use xlink:href="#stroke0_0_228" transform="translate(20.1785 20.554) scale(0.00387573) rotate(174.577)"/>
<use xlink:href="#stroke0_0_228" transform="translate(20.8171 19.7067) scale(0.00393678) rotate(96.2606)"/>
<use xlink:href="#stroke0_0_228" transform="translate(21.6485 20.1208) scale(0.00412821) rotate(111.468)"/>
<use xlink:href="#stroke0_0_228" transform="translate(20.9096 21.3318) scale(0.00395033) rotate(-99.4543)"/>
<use xlink:href="#stroke0_0_228" transform="translate(21.472 21.302) scale(0.00441222) rotate(-92.0775)"/>
<use xlink:href="#stroke0_0_228" transform="translate(23.1963 21.6461) scale(0.00426955) rotate(-151.151)"/>
<use xlink:href="#stroke0_0_228" transform="translate(24.2181 19.8717) scale(0.00417822) rotate(78.8762)"/>
<use xlink:href="#stroke0_0_228" transform="translate(23.5329 21.101) scale(0.00419776) rotate(-75.1018)"/>
<use xlink:href="#stroke0_0_228" transform="translate(25.7794 21.2044) scale(0.00424349) rotate(-178.131)"/>
<use xlink:href="#stroke0_0_228" transform="translate(25.5706 21.2217) scale(0.004632) rotate(-122.54)"/>
<use xlink:href="#stroke0_0_228" transform="translate(26.0297 18.9487) scale(0.00446168) rotate(14.847)"/>
<use xlink:href="#stroke0_0_228" transform="translate(26.3458 19.2699) scale(0.00440885) rotate(-22.4877)"/>
<use xlink:href="#stroke0_0_228" transform="translate(27.0402 19.0714) scale(0.00442192) rotate(-26.3736)"/>
<use xlink:href="#stroke0_0_228" transform="translate(29.6753 19.0779) scale(0.00429886) rotate(131.748)"/>
<use xlink:href="#stroke0_0_228" transform="translate(20.3119 27.7412) scale(0.00454601) rotate(172.157)"/>
<use xlink:href="#stroke0_0_228" transform="translate(19.7166 26.8635) scale(0.00421521) rotate(52.5643)"/>
<use xlink:href="#stroke0_0_228" transform="translate(18.6381 28.5057) scale(0.00409495) rotate(-42.2127)"/>
<use xlink:href="#stroke0_0_228" transform="translate(19.7963 28.2559) scale(0.00438817) rotate(53.6979)"/>
<use xlink:href="#stroke0_0_228" transform="translate(20.1553 29.5684) scale(0.00405029) rotate(115.843)"/>
<use xlink:href="#stroke0_0_228" transform="translate(19.4504 29.5293) scale(0.00454382) rotate(103.726)"/>
<use xlink:href="#stroke0_0_228" transform="translate(18.6366 29.7584) scale(0.00422279) rotate(99.9777)"/>
<use xlink:href="#stroke0_0_228" transform="translate(16.3525 31.1992) scale(0.0043226) rotate(-86.4848)"/>
<use xlink:href="#stroke0_0_228" transform="translate(17.4029 30.7673) scale(0.00453408) rotate(141.443)"/>
<use xlink:href="#stroke0_0_228" transform="translate(16.2448 31.2871) scale(0.00432492) rotate(-176.249)"/>
<use xlink:href="#stroke0_0_228" transform="translate(15.5153 31.035) scale(0.00441026) rotate(-171.731)"/>
<use xlink:href="#stroke0_0_228" transform="translate(14.3573 30.9472) scale(0.00439969) rotate(-145.378)"/>
<use xlink:href="#stroke0_0_228" transform="translate(12.7095 29.3155) scale(0.00395581) rotate(-36.2352)"/>
<use xlink:href="#stroke0_0_228" transform="translate(13.2784 28.1045) scale(0.00414301) rotate(57.1089)"/>
<use xlink:href="#stroke0_0_228" transform="translate(11.7267 27.9637) scale(0.00427319) rotate(-3.4737)"/>
<use xlink:href="#stroke0_0_228" transform="translate(11.2565 27.51) scale(0.00401962) rotate(-1.17205)"/>
<use xlink:href="#stroke0_0_228" transform="translate(27.1695 26.3396) scale(0.00404905) rotate(81.9938)"/>
<use xlink:href="#stroke0_0_228" transform="translate(25.6799 27.2421) scale(0.00454737) rotate(-11.7945)"/>
<use xlink:href="#stroke0_0_228" transform="translate(26.4077 27.5595) scale(0.00449079) rotate(42.5231)"/>
<use xlink:href="#stroke0_0_228" transform="translate(27.2487 28.7394) scale(0.00415056) rotate(97.6171)"/>
<use xlink:href="#stroke0_0_228" transform="translate(27.712 29.8098) scale(0.00386499) rotate(128.057)"/>
<use xlink:href="#stroke0_0_228" transform="translate(26.9426 29.3292) scale(0.00417787) rotate(11.1425)"/>
<use xlink:href="#stroke0_0_228" transform="translate(28.817 29.7799) scale(0.00393507) rotate(92.1584)"/>
<use xlink:href="#stroke0_0_228" transform="translate(28.003 31.041) scale(0.0042128) rotate(-78.1176)"/>
<use xlink:href="#stroke0_0_228" transform="translate(29.4915 31.6629) scale(0.00461909) rotate(-130.142)"/>
<use xlink:href="#stroke0_0_228" transform="translate(31.1841 30.7563) scale(0.0038819) rotate(152.681)"/>
<use xlink:href="#stroke0_0_228" transform="translate(32.0037 30.183) scale(0.00425674) rotate(121.267)"/>
<use xlink:href="#stroke0_0_228" transform="translate(31.7017 28.9262) scale(0.00440557) rotate(47.4308)"/>
<use xlink:href="#stroke0_0_228" transform="translate(31.3865 29.9465) scale(0.004167) rotate(-66.6415)"/>
<use xlink:href="#stroke0_0_228" transform="translate(32.5456 28.2033) scale(0.00457339) rotate(22.691)"/>
<use xlink:href="#stroke0_0_228" transform="translate(34.1977 29.3506) scale(0.00417579) rotate(178.037)"/>
<use xlink:href="#stroke0_0_228" transform="translate(33.0774 28.1566) scale(0.00431693) rotate(-40.8754)"/>
<use xlink:href="#stroke0_0_228" transform="translate(17.1403 37.3219) scale(0.00449094) rotate(-151.481)"/>
<use xlink:href="#stroke0_0_228" transform="translate(16.5993 36.1686) scale(0.00446156) rotate(-36.52)"/>
<use xlink:href="#stroke0_0_228" transform="translate(17.4743 36.1418) scale(0.00383997) rotate(-33.9581)"/>
<use xlink:href="#stroke0_0_228" transform="translate(19.9678 36.1136) scale(0.00434767) rotate(110.084)"/>
<use xlink:href="#stroke0_0_228" transform="translate(20.6654 36.2719) scale(0.0040672) rotate(113.9)"/>
<use xlink:href="#stroke0_0_228" transform="translate(20.7426 36.1275) scale(0.0039471) rotate(67.6991)"/>
<use xlink:href="#stroke0_0_228" transform="translate(20.5377 36.4915) scale(0.00388514) rotate(17.7121)"/>
<use xlink:href="#stroke0_0_228" transform="translate(21.7039 38.6387) scale(0.00392701) rotate(-152.341)"/>
<use xlink:href="#stroke0_0_228" transform="translate(21.7735 37.4066) scale(0.00438455) rotate(47.9382)"/>
<use xlink:href="#stroke0_0_228" transform="translate(22.9068 39.2568) scale(0.00411116) rotate(143.881)"/>
<use xlink:href="#stroke0_0_228" transform="translate(21.3641 39.0337) scale(0.00416647) rotate(-6.24062)"/>
<use xlink:href="#stroke0_0_228" transform="translate(24.2581 40.8212) scale(0.00387174) rotate(-112.982)"/>
<use xlink:href="#stroke0_0_228" transform="translate(24.0996 38.8938) scale(0.0038628) rotate(-14.3569)"/>
<use xlink:href="#stroke0_0_228" transform="translate(24.7693 38.1263) scale(0.00406479) rotate(5.77887)"/>
<use xlink:href="#stroke0_0_228" transform="translate(26.2216 37.4729) scale(0.0040146) rotate(75.1208)"/>
<use xlink:href="#stroke0_0_228" transform="translate(26.3157 38.867) scale(0.00452829) rotate(-135.808)"/>
<use xlink:href="#stroke0_0_228" transform="translate(27.6195 37.8537) scale(0.00400861) rotate(170.179)"/>
<use xlink:href="#stroke0_0_228" transform="translate(27.3547 35.9801) scale(0.00427251) rotate(35.9399)"/>
<use xlink:href="#stroke0_0_228" transform="translate(28.0257 35.6725) scale(0.00395141) rotate(39.3246)"/>
<use xlink:href="#stroke0_0_228" transform="translate(28.7898 37.4252) scale(0.0042591) rotate(-138.677)"/>
<use xlink:href="#stroke0_0_228" transform="translate(26.7433 3.6462) scale(0.00384069) rotate(-115.352)"/>
<use xlink:href="#stroke0_0_228" transform="translate(28.6184 2.21915) scale(0.0043078) rotate(125.027)"/>
<use xlink:href="#stroke0_0_228" transform="translate(29.0834 1.72124) scale(0.00384401) rotate(105.482)"/>
<use xlink:href="#stroke0_0_228" transform="translate(29.4666 2.82909) scale(0.00433405) rotate(-165.217)"/>
<use xlink:href="#stroke0_0_228" transform="translate(29.2746 2.81767) scale(0.00435588) rotate(-110.305)"/>
<use xlink:href="#stroke0_0_228" transform="translate(29.8932 1.00683) scale(0.00435604) rotate(10.4235)"/>
<use xlink:href="#stroke0_0_228" transform="translate(32.099 2.52079) scale(0.00438003) rotate(160.703)"/>
<use xlink:href="#stroke0_0_228" transform="translate(31.9027 1.20023) scale(0.00450245) rotate(42.7565)"/>
<use xlink:href="#stroke0_0_228" transform="translate(33.178 1.86684) scale(0.00427944) rotate(81.3163)"/>
<use xlink:href="#stroke0_0_228" transform="translate(33.4466 2.28481) scale(0.00403138) rotate(65.7225)"/>
<use xlink:href="#stroke0_0_228" transform="translate(33.2536 2.84354) scale(0.00401507) rotate(31.2851)"/>
<use xlink:href="#stroke0_0_228" transform="translate(34.9163 4.17665) scale(0.0042205) rotate(126.661)"/>
<use xlink:href="#stroke0_0_228" transform="translate(35.1377 5.2576) scale(0.00433911) rotate(147.487)"/>
<use xlink:href="#stroke0_0_228" transform="translate(33.9833 6.69412) scale(0.00412328) rotate(-122.409)"/>
<use xlink:href="#stroke0_0_228" transform="translate(34.7863 5.57681) scale(0.00460267) rotate(74.9616)"/>
<use xlink:href="#stroke0_0_228" transform="translate(33.9186 8.13153) scale(0.00396006) rotate(-121.187)"/>
<use xlink:href="#stroke0_0_228" transform="translate(34.1989 8.75292) scale(0.00383665) rotate(-150.399)"/>
<use xlink:href="#stroke0_0_228" transform="translate(33.2679 9.52711) scale(0.00456558) rotate(-116.866)"/>
<use xlink:href="#stroke0_0_228" transform="translate(34.2153 9.25831) scale(0.00408287) rotate(139.355)"/>
<use xlink:href="#stroke0_0_228" transform="translate(32.2118 8.90537) scale(0.00437688) rotate(8.87776)"/>
<use xlink:href="#stroke0_0_228" transform="translate(31.8696 9.50001) scale(0.00409922) rotate(14.0019)"/>
<use xlink:href="#stroke0_0_228" transform="translate(33.1131 10.5789) scale(0.00408755) rotate(109.19)"/>
<use xlink:href="#stroke0_0_228" transform="translate(31.6549 10.9107) scale(0.00446154) rotate(5.3806)"/>
<use xlink:href="#stroke0_0_228" transform="translate(33.2982 12.4626) scale(0.00415628) rotate(133.888)"/>
<use xlink:href="#stroke0_0_228" transform="translate(32.8129 12.3199) scale(0.00460107) rotate(77.3497)"/>
<use xlink:href="#stroke0_0_228" transform="translate(32.7185 13.2309) scale(0.00402582) rotate(82.9508)"/>
<use xlink:href="#stroke0_0_228" transform="translate(32.0352 13.6351) scale(0.00451851) rotate(48.2899)"/>
<use xlink:href="#stroke0_0_228" transform="translate(30.5622 15.5765) scale(0.00446879) rotate(-55.8134)"/>
<use xlink:href="#stroke0_0_228" transform="translate(30.8175 15.4397) scale(0.00395439) rotate(1.27823)"/>
<use xlink:href="#stroke0_0_228" transform="translate(32.3593 16.7942) scale(0.00409042) rotate(132.722)"/>
<use xlink:href="#stroke0_0_228" transform="translate(32.4839 17.1173) scale(0.00439934) rotate(109.53)"/>
<use xlink:href="#stroke0_0_228" transform="translate(32.5937 17.9317) scale(0.00398093) rotate(113.964)"/>
<use xlink:href="#stroke0_0_228" transform="translate(31.6319 19.6308) scale(0.00389671) rotate(-105.303)"/>
<use xlink:href="#stroke0_0_228" transform="translate(33.4612 18.4667) scale(0.00440589) rotate(89.0702)"/>
<use xlink:href="#stroke0_0_228" transform="translate(32.742 20.3964) scale(0.00445477) rotate(-96.9811)"/>
<use xlink:href="#stroke0_0_228" transform="translate(33.9124 20.8979) scale(0.00425152) rotate(-126.562)"/>
<use xlink:href="#stroke0_0_228" transform="translate(33.7607 20.7523) scale(0.00432682) rotate(-69.6354)"/>
<use xlink:href="#stroke0_0_228" transform="translate(35.8686 21.6543) scale(0.00435401) rotate(-175.596)"/>
<use xlink:href="#stroke0_0_228" transform="translate(36.4166 22.1084) scale(0.00423905) rotate(-179.919)"/>
<use xlink:href="#stroke0_0_228" transform="translate(35.0932 21.8686) scale(0.00430611) rotate(-36.5344)"/>
<use xlink:href="#stroke0_0_228" transform="translate(37.3451 22.3424) scale(0.00421315) rotate(113.904)"/>
<use xlink:href="#stroke0_0_228" transform="translate(36.7406 24.3889) scale(0.00425763) rotate(-146.039)"/>
<use xlink:href="#stroke0_0_228" transform="translate(37.1934 23.5511) scale(0.00402639) rotate(96.8956)"/>
<use xlink:href="#stroke0_0_228" transform="translate(37.2022 24.2312) scale(0.00417518) rotate(96.279)"/>
<use xlink:href="#stroke0_0_228" transform="translate(35.3659 24.9986) scale(0.00411998) rotate(-13.9238)"/>
<use xlink:href="#stroke0_0_228" transform="translate(35.0658 26.124) scale(0.00405485) rotate(-41.4564)"/>
<use xlink:href="#stroke0_0_228" transform="translate(35.1424 27.762) scale(0.00449591) rotate(-107.352)"/>
<use xlink:href="#stroke0_0_228" transform="translate(35.1326 28.4106) scale(0.00408454) rotate(-128.822)"/>
<use xlink:href="#stroke0_0_228" transform="translate(35.8516 28.3169) scale(0.00433547) rotate(147.64)"/>
<use xlink:href="#stroke0_0_228" transform="translate(35.1487 29.3597) scale(0.00400434) rotate(179.26)"/>
<use xlink:href="#stroke0_0_228" transform="translate(33.7936 30.3438) scale(0.00459192) rotate(-119.02)"/>
<use xlink:href="#stroke0_0_228" transform="translate(33.9397 31.0152) scale(0.00461213) rotate(-152.181)"/>
<use xlink:href="#stroke0_0_228" transform="translate(33.9613 31.604) scale(0.00436671) rotate(-167.527)"/>
<use xlink:href="#stroke0_0_228" transform="translate(34.149 30.8812) scale(0.00396572) rotate(96.1434)"/>
<use xlink:href="#stroke0_0_228" transform="translate(32.6792 32.3477) scale(0.00421325) rotate(-59.638)"/>
<use xlink:href="#stroke0_0_228" transform="translate(33.4581 33.4676) scale(0.00412506) rotate(-97.6766)"/>
<use xlink:href="#stroke0_0_228" transform="translate(33.7472 32.577) scale(0.00459009) rotate(-8.54147)"/>
<use xlink:href="#stroke0_0_228" transform="translate(34.497 34.4155) scale(0.00404425) rotate(-91.8312)"/>
<use xlink:href="#stroke0_0_228" transform="translate(35.0315 33.5152) scale(0.00405928) rotate(3.11832)"/>
<use xlink:href="#stroke0_0_228" transform="translate(34.9049 34.8464) scale(0.00458425) rotate(-41.7527)"/>
<use xlink:href="#stroke0_0_228" transform="translate(37.2822 35.1272) scale(0.00398586) rotate(109.926)"/>
<use xlink:href="#stroke0_0_228" transform="translate(35.7794 35.8751) scale(0.00399666) rotate(-27.6784)"/>
<use xlink:href="#stroke0_0_228" transform="translate(36.8798 35.8378) scale(0.00425802) rotate(41.2874)"/>
<use xlink:href="#stroke0_0_228" transform="translate(38.0236 37.2686) scale(0.00446378) rotate(116.682)"/>
<use xlink:href="#stroke0_0_228" transform="translate(36.7837 39.29) scale(0.00428864) rotate(-117.637)"/>
<use xlink:href="#stroke0_0_228" transform="translate(37.4704 40.0378) scale(0.00435539) rotate(-156.354)"/>
<use xlink:href="#stroke0_0_228" transform="translate(37.8558 40.5045) scale(0.00439217) rotate(173.974)"/>
<use xlink:href="#stroke0_0_228" transform="translate(36.1666 41.2515) scale(0.00404463) rotate(-95.4131)"/>
<use xlink:href="#stroke0_0_228" transform="translate(37.2437 41.7247) scale(0.00396189) rotate(171.472)"/>
<use xlink:href="#stroke0_0_228" transform="translate(36.8968 41.0802) scale(0.00454359) rotate(94.5427)"/>
<use xlink:href="#stroke0_0_228" transform="translate(35.693 41.3848) scale(0.00424436) rotate(47.2461)"/>
<use xlink:href="#stroke0_0_228" transform="translate(35.2529 43.9316) scale(0.00454289) rotate(-145.233)"/>
<use xlink:href="#stroke0_0_228" transform="translate(35.3028 43.7564) scale(0.00413665) rotate(162.551)"/>
<use xlink:href="#stroke0_0_228" transform="translate(33.4592 42.7229) scale(0.00384229) rotate(21.4051)"/>
<use xlink:href="#stroke0_0_228" transform="translate(33.82 43.0478) scale(0.00462824) rotate(82.5038)"/>
<use xlink:href="#stroke0_0_228" transform="translate(33.3708 44.2722) scale(0.00438851) rotate(147.97)"/>
<use xlink:href="#stroke0_0_228" transform="translate(31.861 45.2286) scale(0.00461132) rotate(-149.525)"/>
<use xlink:href="#stroke0_0_228" transform="translate(31.5648 43.4644) scale(0.00460972) rotate(89.393)"/>
<use xlink:href="#stroke0_0_228" transform="translate(29.686 45.0245) scale(0.00422006) rotate(-114.903)"/>
<use xlink:href="#stroke0_0_228" transform="translate(30.1137 44.701) scale(0.00446827) rotate(172.013)"/>
<use xlink:href="#stroke0_0_228" transform="translate(28.2357 44.845) scale(0.00395803) rotate(-115.025)"/>
<use xlink:href="#stroke0_0_228" transform="translate(28.1209 42.9026) scale(0.00418134) rotate(59.2149)"/>
<use xlink:href="#stroke0_0_228" transform="translate(26.5129 44.1903) scale(0.00397397) rotate(-86.7795)"/>
<use xlink:href="#stroke0_0_228" transform="translate(26.8785 42.4609) scale(0.00415677) rotate(64.8197)"/>
<use xlink:href="#stroke0_0_228" transform="translate(25.5953 43.8361) scale(0.00407496) rotate(-113.507)"/>
<use xlink:href="#stroke0_0_228" transform="translate(24.4695 42.8309) scale(0.00415164) rotate(-63.8891)"/>
<use xlink:href="#stroke0_0_228" transform="translate(25.441 41.1669) scale(0.00457723) rotate(80.4545)"/>
<use xlink:href="#stroke0_0_228" transform="translate(23.4659 41.0854) scale(0.00425067) rotate(-30.0796)"/>
<use xlink:href="#stroke0_0_228" transform="translate(23.2632 40.5979) scale(0.00440949) rotate(-45.3765)"/>
<use xlink:href="#stroke0_0_228" transform="translate(24.0622 41.2883) scale(0.00446521) rotate(-151.632)"/>
<use xlink:href="#stroke0_0_228" transform="translate(22.1814 39.8733) scale(0.00393995) rotate(-26.377)"/>
<use xlink:href="#stroke0_0_228" transform="translate(22.0221 39.2429) scale(0.00428297) rotate(26.0321)"/>
<use xlink:href="#stroke0_0_228" transform="translate(20.7884 39.994) scale(0.00457318) rotate(-17.0752)"/>
<use xlink:href="#stroke0_0_228" transform="translate(22.3449 41.9247) scale(0.00431784) rotate(174.756)"/>
<use xlink:href="#stroke0_0_228" transform="translate(21.1871 40.9104) scale(0.00441804) rotate(42.8253)"/>
<use xlink:href="#stroke0_0_228" transform="translate(21.4061 41.7489) scale(0.00448589) rotate(89.2951)"/>
<use xlink:href="#stroke0_0_228" transform="translate(20.1764 41.9239) scale(0.0044646) rotate(50.5887)"/>
<use xlink:href="#stroke0_0_228" transform="translate(18.5158 43.5022) scale(0.00410749) rotate(-49.9054)"/>
<use xlink:href="#stroke0_0_228" transform="translate(19.7579 43.4425) scale(0.00429693) rotate(121.147)"/>
<use xlink:href="#stroke0_0_228" transform="translate(16.9648 43.749) scale(0.00450558) rotate(-43.953)"/>
<use xlink:href="#stroke0_0_228" transform="translate(16.9962 43.1966) scale(0.00383445) rotate(22.149)"/>
<use xlink:href="#stroke0_0_228" transform="translate(16.5661 43.1742) scale(0.00401729) rotate(38.6494)"/>
<use xlink:href="#stroke0_0_228" transform="translate(16.9343 43.7627) scale(0.00461021) rotate(116.121)"/>
<use xlink:href="#stroke0_0_228" transform="translate(15.9796 43.7128) scale(0.00394204) rotate(105.236)"/>
<use xlink:href="#stroke0_0_228" transform="translate(13.486 43.8712) scale(0.0042991) rotate(-32.5253)"/>
<use xlink:href="#stroke0_0_228" transform="translate(13.0868 44.6552) scale(0.00393186) rotate(-88.926)"/>
<use xlink:href="#stroke0_0_228" transform="translate(12.3775 44.5349) scale(0.00418038) rotate(-89.9475)"/>
<use xlink:href="#stroke0_0_228" transform="translate(12.3799 44.5764) scale(0.00434611) rotate(-134.457)"/>
<use xlink:href="#stroke0_0_228" transform="translate(11.9828 42.3826) scale(0.00445296) rotate(62.8061)"/>
<use xlink:href="#stroke0_0_228" transform="translate(12.1206 42.8116) scale(0.00447602) rotate(132.792)"/>
<use xlink:href="#stroke0_0_228" transform="translate(9.7898 43.0984) scale(0.00392591) rotate(-89.7673)"/>
<use xlink:href="#stroke0_0_228" transform="translate(8.88437 41.9166) scale(0.00452368) rotate(-45.1241)"/>
<use xlink:href="#stroke0_0_228" transform="translate(10.6167 41.2053) scale(0.00461005) rotate(132.268)"/>
<use xlink:href="#stroke0_0_228" transform="translate(10.038 41.0417) scale(0.00388173) rotate(166.057)"/>
<use xlink:href="#stroke0_0_228" transform="translate(9.03474 40.9588) scale(0.00462912) rotate(-137.385)"/>
<use xlink:href="#stroke0_0_228" transform="translate(9.30594 40.0961) scale(0.00455195) rotate(-153.344)"/>
<use xlink:href="#stroke0_0_228" transform="translate(8.32161 39.236) scale(0.00459288) rotate(-106.975)"/>
<use xlink:href="#stroke0_0_228" transform="translate(7.90772 37.5599) scale(0.00449732) rotate(-48.1762)"/>
<use xlink:href="#stroke0_0_228" transform="translate(8.34032 37.3509) scale(0.00426669) rotate(-80.6999)"/>
<use xlink:href="#stroke0_0_228" transform="translate(8.34488 36.4935) scale(0.00427376) rotate(-73.2544)"/>
<use xlink:href="#stroke0_0_228" transform="translate(9.32649 36.3652) scale(0.00433503) rotate(-115.976)"/>
<use xlink:href="#stroke0_0_228" transform="translate(9.89027 33.8139) scale(0.00403759) rotate(39.2088)"/>
<use xlink:href="#stroke0_0_228" transform="translate(10.4427 33.2046) scale(0.00424878) rotate(45.2815)"/>
<use xlink:href="#stroke0_0_228" transform="translate(10.5811 32.7532) scale(0.00421283) rotate(23.2344)"/>
<use xlink:href="#stroke0_0_228" transform="translate(10.732 32.5342) scale(0.00394102) rotate(-3.44791)"/>
<use xlink:href="#stroke0_0_228" transform="translate(12.6956 33.012) scale(0.00404935) rotate(159.482)"/>
<use xlink:href="#stroke0_0_228" transform="translate(12.4573 33.0869) scale(0.00457506) rotate(-144.573)"/>
<use xlink:href="#stroke0_0_228" transform="translate(11.8476 31.7949) scale(0.00419981) rotate(-71.0386)"/>
<use xlink:href="#stroke0_0_228" transform="translate(12.4145 29.8062) scale(0.00386155) rotate(36.1905)"/>
<use xlink:href="#stroke0_0_228" transform="translate(13.219 29.9226) scale(0.00398797) rotate(125.37)"/>
<use xlink:href="#stroke0_0_228" transform="translate(11.571 30.175) scale(0.00416514) rotate(-100.935)"/>
<use xlink:href="#stroke0_0_228" transform="translate(10.7642 29.1342) scale(0.00390636) rotate(-63.0978)"/>
<use xlink:href="#stroke0_0_228" transform="translate(12.309 28.4364) scale(0.00463777) rotate(145.316)"/>
<use xlink:href="#stroke0_0_228" transform="translate(11.7483 27.8914) scale(0.00453069) rotate(148.887)"/>
<use xlink:href="#stroke0_0_228" transform="translate(9.61682 26.1241) scale(0.00460954) rotate(3.0909)"/>
<use xlink:href="#stroke0_0_228" transform="translate(10.7907 26.7748) scale(0.00416333) rotate(166.02)"/>
<use xlink:href="#stroke0_0_228" transform="translate(9.56217 26.4989) scale(0.0039616) rotate(-124.63)"/>
<use xlink:href="#stroke0_0_228" transform="translate(9.15259 24.1174) scale(0.00386122) rotate(20.492)"/>
<use xlink:href="#stroke0_0_228" transform="translate(9.71434 25.1565) scale(0.00400246) rotate(-152.191)"/>
<use xlink:href="#stroke0_0_228" transform="translate(8.75033 24.2317) scale(0.00410733) rotate(-90.5924)"/>
<use xlink:href="#stroke0_0_228" transform="translate(10.5333 22.6693) scale(0.00408196) rotate(122.643)"/>
<use xlink:href="#stroke0_0_228" transform="translate(8.87482 22.767) scale(0.00439139) rotate(-84.3661)"/>
<use xlink:href="#stroke0_0_228" transform="translate(9.12834 21.7352) scale(0.00385829) rotate(-62.6651)"/>
<use xlink:href="#stroke0_0_228" transform="translate(9.50619 20.8098) scale(0.0043136) rotate(-36.5842)"/>
<use xlink:href="#stroke0_0_228" transform="translate(11.7513 19.9425) scale(0.00389293) rotate(94.635)"/>
<use xlink:href="#stroke0_0_228" transform="translate(12.3349 19.5514) scale(0.00396293) rotate(101.257)"/>
<use xlink:href="#stroke0_0_228" transform="translate(12.4652 20.7193) scale(0.00429511) rotate(-150.554)"/>
<use xlink:href="#stroke0_0_228" transform="translate(12.8486 18.2772) scale(0.00453742) rotate(44.0546)"/>
<use xlink:href="#stroke0_0_228" transform="translate(13.2605 19.9554) scale(0.00405003) rotate(-117.578)"/>
<use xlink:href="#stroke0_0_228" transform="translate(13.325 19.2334) scale(0.00449992) rotate(-88.5604)"/>
<use xlink:href="#stroke0_0_228" transform="translate(14.0365 16.9586) scale(0.00411341) rotate(19.4583)"/>
<use xlink:href="#stroke0_0_228" transform="translate(14.6602 18.065) scale(0.00419091) rotate(-146.171)"/>
<use xlink:href="#stroke0_0_228" transform="translate(15.4774 16.4581) scale(0.0045139) rotate(140.081)"/>
<use xlink:href="#stroke0_0_228" transform="translate(15.3709 15.8495) scale(0.0043292) rotate(149.687)"/>
<use xlink:href="#stroke0_0_228" transform="translate(14.2488 13.7814) scale(0.00454318) rotate(48.2658)"/>
<use xlink:href="#stroke0_0_228" transform="translate(13.6211 13.2466) scale(0.00403208) rotate(24.6933)"/>
<use xlink:href="#stroke0_0_228" transform="translate(12.7781 13.1464) scale(0.00437519) rotate(-29.9232)"/>
<use xlink:href="#stroke0_0_228" transform="translate(14.4467 13.2172) scale(0.00384119) rotate(168.539)"/>
<use xlink:href="#stroke0_0_228" transform="translate(14.3159 12.8182) scale(0.00463218) rotate(-174.944)"/>
<use xlink:href="#stroke0_0_228" transform="translate(13.1807 10.3477) scale(0.00418556) rotate(16.4494)"/>
<use xlink:href="#stroke0_0_228" transform="translate(12.7764 10.0481) scale(0.0043723) rotate(-21.1107)"/>
<use xlink:href="#stroke0_0_228" transform="translate(12.8616 10.8391) scale(0.0042862) rotate(-110.469)"/>
<use xlink:href="#stroke0_0_228" transform="translate(13.182 10.2854) scale(0.00411937) rotate(-161.007)"/>
<use xlink:href="#stroke0_0_228" transform="translate(12.1002 9.81197) scale(0.00461463) rotate(-121.464)"/>
<use xlink:href="#stroke0_0_228" transform="translate(12.8515 8.58736) scale(0.00414175) rotate(165.687)"/>
<use xlink:href="#stroke0_0_228" transform="translate(12.0028 8.39679) scale(0.00451619) rotate(-146.549)"/>
<use xlink:href="#stroke0_0_228" transform="translate(11.8243 5.69222) scale(0.0039615) rotate(45.6261)"/>
<use xlink:href="#stroke0_0_228" transform="translate(12.6876 5.48882) scale(0.00463344) rotate(113.462)"/>
<use xlink:href="#stroke0_0_228" transform="translate(10.9219 5.16337) scale(0.00386937) rotate(-46.8481)"/>
<use xlink:href="#stroke0_0_228" transform="translate(11.6493 3.62944) scale(0.00420272) rotate(16.8608)"/>
<use xlink:href="#stroke0_0_228" transform="translate(11.3895 4.07084) scale(0.00406911) rotate(-61.8969)"/>
<use xlink:href="#stroke0_0_228" transform="translate(12.3538 2.35233) scale(0.00447707) rotate(16.7783)"/>
<use xlink:href="#stroke0_0_228" transform="translate(13.2701 1.68976) scale(0.00447065) rotate(39.0455)"/>
<use xlink:href="#stroke0_0_228" transform="translate(14.8889 1.83861) scale(0.00433464) rotate(104.659)"/>
<use xlink:href="#stroke0_0_228" transform="translate(14.0575 2.91512) scale(0.00457509) rotate(-97.3894)"/>
<use xlink:href="#stroke0_0_228" transform="translate(15.5132 0.992107) scale(0.00393406) rotate(49.3547)"/>
<use xlink:href="#stroke0_0_228" transform="translate(16.1704 0.958608) scale(0.0039037) rotate(48.4271)"/>
<use xlink:href="#stroke0_0_228" transform="translate(16.3063 2.77542) scale(0.0044604) rotate(-105.541)"/>
<use xlink:href="#stroke0_0_228" transform="translate(17.647 1.19885) scale(0.00392057) rotate(52.2626)"/>
<use xlink:href="#stroke0_0_228" transform="translate(18.7778 1.6706) scale(0.00409464) rotate(85.4279)"/>
<use xlink:href="#stroke0_0_228" transform="translate(18.5125 3.63425) scale(0.00396058) rotate(-121.065)"/>
<use xlink:href="#stroke0_0_228" transform="translate(19.78 1.61365) scale(0.00421296) rotate(68.1213)"/>
<use xlink:href="#stroke0_0_228" transform="translate(20.6374 3.33099) scale(0.00459045) rotate(-162.979)"/>
<use xlink:href="#stroke0_0_228" transform="translate(20.0994 1.4807) scale(0.00401058) rotate(-6.7091)"/>
<use xlink:href="#stroke0_0_228" transform="translate(20.636 1.59309) scale(0.00383867) rotate(-26.9254)"/>
<use xlink:href="#stroke0_0_228" transform="translate(22.7232 1.12075) scale(0.00387703) rotate(82.9925)"/>
<use xlink:href="#stroke0_0_228" transform="translate(22.7965 0.759927) scale(0.00427558) rotate(40.4102)"/>
<use xlink:href="#stroke0_0_228" transform="translate(22.5885 1.8151) scale(0.0043806) rotate(-41.3693)"/>
<use xlink:href="#stroke0_0_228" transform="translate(24.395 0.889338) scale(0.00441198) rotate(45.4179)"/>
<use xlink:href="#stroke0_0_228" transform="translate(25.8717 2.63543) scale(0.0040791) rotate(169.751)"/>
<use xlink:href="#stroke0_0_228" transform="translate(26.6136 2.77744) scale(0.00412198) rotate(162.963)"/>
<use xlink:href="#stroke0_0_228" transform="translate(26.354 3.69472) scale(0.00463398) rotate(-129.922)"/>
<use xlink:href="#stroke0_0_228" transform="translate(26.0115 2.87616) scale(0.00460012) rotate(-52.4987)"/>
</g>
</g>
<defs>
<g id="stroke0_0_228" data-figma-scatter-ref="stroke0_0_228_ref" data-figma-scatter="f0.53_w0.06_aj162_sj0.1_r0_s0_sw1.412">
<path d="M215.823 333.963C215.823 333.23 216.123 332.93 216.49 333.296C216.856 333.663 216.856 334.263 216.49 334.63C216.123 334.996 215.823 334.696 215.823 333.963ZM143.424 3.97701C148.056 3.32404 151.523 8.80284 148.726 12.3588C146.775 14.8388 146.175 17.9633 147.648 17.9633C148.553 17.9667 158.823 30.3033 158.823 31.3862C158.823 32.4623 154.479 36.4974 152.507 37.2544C150.609 37.9824 151.073 39.9631 153.14 39.9633C153.801 39.9633 154.92 40.8881 155.626 42.02C156.91 44.0739 156.912 44.0744 158.617 42.0766C159.555 40.9766 161.223 39.938 162.323 39.77C163.423 39.601 164.653 39.0132 165.057 38.4633C165.472 37.8983 165.798 38.2253 165.807 39.2133C165.825 41.3531 166.254 41.3818 169.215 39.4419C170.838 38.3789 171.405 37.2303 171.099 35.6313C170.05 30.1434 175.963 30.1199 185.501 35.5737C190.79 38.5976 191.028 38.5792 193.164 34.9633C196.187 29.8454 203.13 33.2701 201.316 38.9838C200.801 40.6068 201.133 41.2309 202.733 41.6499C203.883 41.9499 204.823 42.5946 204.823 43.0805C204.824 43.5654 205.723 43.9633 206.823 43.9633C209.228 43.9633 209.333 43.3299 207.269 41.2661C205.332 39.3301 205.758 35.0191 208.025 33.5991C210.469 32.0694 211.11 33.2632 210.001 37.2797C209.157 40.3355 209.276 40.8478 210.928 41.2797C211.97 41.5527 212.823 42.4936 212.823 43.3696C212.824 45.4861 216.745 45.4516 218.302 43.3227C219.936 41.0879 223.264 42.9574 223.298 46.1294C223.32 48.1552 223.883 48.504 227.573 48.77C231.476 49.053 231.823 48.8831 231.823 46.6811C231.823 45.0832 232.672 43.8975 234.37 43.1245C240.164 40.4845 243.457 43.0685 242.282 49.3315C241.655 52.6722 241.655 52.6725 249.407 53.3745C262.73 54.5825 271.108 62.5852 260.323 63.8012C258.673 63.9882 256.79 64.5797 256.14 65.1167C255.368 65.7556 253.636 65.7276 251.14 65.0346C246.476 63.7398 245.823 63.7172 245.823 64.8549C245.823 65.7449 249.37 66.9616 253.515 67.4936C257.329 67.9826 258.042 68.9656 257.379 72.8286C255.795 82.0527 255.841 81.9633 252.685 81.9633C250.953 81.9633 249.964 81.5443 250.323 80.9633C250.663 80.4133 250.517 79.9633 249.999 79.9633C249.48 79.9633 248.821 79.0632 248.533 77.9633C248.217 76.7553 247.169 75.9633 245.885 75.9633C244.716 75.9632 243.46 75.1762 243.092 74.2133C242.404 72.4103 242.246 72.1833 238.753 67.9633C236.684 65.4633 236.684 65.4633 237.262 68.1733C237.705 70.252 237.359 71.1408 235.772 71.9897C232.719 73.6237 233.414 78.5898 236.633 78.1401C237.903 77.9621 239.585 78.3504 240.37 79.0024C241.211 79.7003 242.9 79.9101 244.485 79.5122C246.95 78.8932 247.055 78.9823 245.748 80.5922C244.844 81.7052 244.78 82.0721 245.573 81.5962C246.78 80.8713 247.26 82.2792 247.055 85.9321C247.01 86.7401 248.281 89.181 249.881 91.3569C252.292 94.6349 252.689 95.9524 252.194 99.0434C251.695 102.167 251.943 102.958 253.722 103.911C255.46 104.841 255.656 105.407 254.789 107.026C254.207 108.114 254.046 109.515 254.431 110.14C255.79 112.339 247.804 110.139 243.089 107.016C234.391 101.254 232.358 104.203 234.165 119.963C234.386 121.888 234.142 123.998 233.622 124.653C231.331 127.54 233.14 131.457 236.823 131.585C238.748 131.652 240.773 131.816 241.323 131.95C241.873 132.084 243.093 132.116 244.034 132.022C246.328 131.792 249.862 133.758 249.563 135.098C249.134 137.018 257.14 136.437 263.279 134.102C266.554 132.856 270.042 132.048 271.029 132.307C272.126 132.594 272.823 132.23 272.823 131.37C272.823 130.597 271.923 129.963 270.823 129.963C268.355 129.963 268.291 128.842 270.596 125.996C272.37 123.806 272.37 123.805 274.251 125.884C277.35 129.307 282.41 126.734 280.041 122.94C279.048 121.351 279.46 120.899 283.362 119.295C285.811 118.288 287.817 117.126 287.819 116.713C287.821 116.301 288.262 115.963 288.798 115.963C290.086 115.963 288.981 121.818 287.134 124.78C286.042 126.531 285.967 127.431 286.825 128.466C288.108 130.011 286.599 133.834 284.133 135.288C283.329 135.762 282.984 136.896 283.321 137.957C283.727 139.236 283.296 139.996 281.916 140.434C280.723 140.812 280.144 141.636 280.471 142.488C281.07 144.051 279.303 146.204 276.573 147.238C275.611 147.602 274.823 148.857 274.823 150.027C274.823 152.253 271.493 157.622 268.86 159.642C267.494 160.689 267.518 160.896 269.075 161.499C270.259 161.958 271.465 161.413 272.792 159.821C274.896 157.295 275.458 157.908 273.83 160.952C272.986 162.526 273.289 162.906 275.83 163.464C279.699 164.314 279.894 168.296 276.323 173.558C272.999 178.456 273.141 179.594 277.811 185.463C279.999 188.213 283.258 192.592 285.055 195.195C287.985 199.439 291.823 201.575 291.823 198.963C291.823 198.413 292.858 197.963 294.123 197.963C295.388 197.963 296.869 197.517 297.413 196.973C298.033 196.353 299.563 196.316 301.501 196.872C303.893 197.558 304.97 197.388 306.229 196.128C311.032 191.326 313.154 199.168 308.775 205.533C305.051 210.945 307.295 210.388 312.57 204.592C314.356 202.629 316.421 201.256 317.16 201.54C317.898 201.822 319.08 201.359 319.785 200.509C321.719 198.179 324.72 198.643 326.009 201.472C327.592 204.947 325.832 207.908 318.196 214.612C312.035 220.021 312.035 220.021 314.929 222.915C319.416 227.402 318.437 230.291 311.993 231.58C309.623 232.053 308.701 231.81 308.231 230.585C307.343 228.271 305.535 228.576 302.783 231.505C300.746 233.674 300.577 234.339 301.632 236.028C303.496 239.014 301.66 241.738 298.126 241.228C293.529 240.565 288.418 246.501 289.907 250.775C290.518 252.528 291.537 253.977 292.171 253.994C292.805 254.011 292.532 254.484 291.565 255.048C290.598 255.611 289.399 255.819 288.9 255.511C288.402 255.203 287.764 255.415 287.483 255.982C287.203 256.549 287.108 256.439 287.273 255.738C287.438 255.037 288.155 254.601 288.867 254.769C289.918 255.018 289.921 254.787 288.886 253.54C288.066 252.551 286.49 252.15 284.467 252.416C282.738 252.642 279.973 252.894 278.323 252.974C276.673 253.055 275.886 253.348 276.573 253.625C277.261 253.904 277.823 254.712 277.823 255.424C277.823 256.136 278.498 257.278 279.323 257.963C284.43 262.201 279.156 267.527 267.467 269.94C261.662 271.138 261.616 271.176 262.217 274.181C262.55 275.849 262.823 278.291 262.823 279.609C262.823 281.174 263.663 282.389 265.244 283.109C266.671 283.759 267.448 284.778 267.136 285.59C265.821 289.017 267.765 292.135 270.801 291.468C274.766 290.597 278.421 292.537 276.707 294.602C276.023 295.427 274.625 295.883 273.602 295.615C272.138 295.233 271.87 295.538 272.348 297.046C272.893 298.763 272.429 298.963 267.889 298.963C262.743 298.963 261.095 297.073 265.249 295.935C268.036 295.172 268.4 292.927 265.844 292.258C264.392 291.879 264.055 291.437 264.845 290.949C266.469 289.946 265.098 283.964 263.244 283.963C262.462 283.963 261.823 283.571 261.823 283.091C261.823 282.611 259.972 281.923 257.709 281.561C255.433 281.197 252.864 280.005 251.959 278.892C250.396 276.971 250.314 277.128 250.111 282.423C249.912 287.635 250.039 287.963 252.254 287.963C257.861 287.963 255.961 295.527 250.118 296.465C248.031 296.8 244.838 297.728 243.022 298.527C240.536 299.621 239.219 299.71 237.687 298.89C235.32 297.624 234.327 298.227 235.168 300.42C235.494 301.269 236.844 301.963 238.169 301.963C242.073 301.963 243.244 304.249 241.284 308.04C239.619 311.258 239.618 311.258 228.221 310.647C216.823 310.036 216.823 310.036 216.823 313.065C216.823 321.686 206.244 322.014 203.987 313.463C202.962 309.577 196.547 308.889 196.016 312.607C195.599 315.535 190.787 316.541 190.083 313.848C189.539 311.771 188.717 311.487 187.273 312.878C186.751 313.382 185.198 313.944 183.823 314.128C182.113 314.357 181.221 315.181 181 316.737C180.739 318.581 180.17 318.937 178 318.615C176.528 318.397 175.418 317.764 175.533 317.21C175.649 316.655 174.861 315.403 173.783 314.427C171.902 312.724 171.821 312.729 171.781 314.558C171.757 315.606 170.365 317.588 168.686 318.963C167.007 320.338 164.438 322.475 162.978 323.712C158.062 327.876 154.556 326.427 153.301 319.713C152.916 317.652 152.42 315.964 152.199 315.963C151.978 315.963 148.55 316.863 144.58 317.963C130.056 321.988 115.58 315.43 128.81 310.818C130.467 310.24 131.823 309.373 131.823 308.89C131.823 308.407 130.668 308.452 129.257 308.988C127.134 309.795 126.098 309.512 123.257 307.345C120.118 304.951 118.274 301.888 120.978 303.558C121.694 304.001 121.861 303.833 121.417 303.115C120.368 301.418 116.504 303.691 117.229 305.579C118.04 307.692 114.948 308.516 113.522 306.566C111.691 304.062 106.546 306.574 107.286 309.61C108.627 315.112 101.84 317.769 99.8455 312.524C98.8953 310.026 94.4089 310.708 90.3231 313.97C88.4581 315.459 83.5201 315.529 83.0311 314.074C82.7723 313.306 83.018 312.966 83.5799 313.313C84.1398 313.659 84.5764 313.384 84.5526 312.703C84.3916 308.249 84.9971 307.097 88.0731 306.006C91.7409 304.706 90.1749 302.466 84.8231 301.359C83.4482 301.075 81.5171 300.405 80.5321 299.87C79.5471 299.334 78.3755 299.121 77.9295 299.397C77.4824 299.673 76.2634 299.261 75.2196 298.481C73.4269 297.14 73.453 297.096 75.7069 297.665C77.4798 298.113 77.9663 297.907 77.6033 296.865C77.3352 296.094 76.3745 295.595 75.4686 295.757C74.5637 295.918 73.8231 295.644 73.8231 295.147C73.8225 293.779 67.1263 286.964 65.7821 286.963C64.5191 286.963 65.3358 292.016 66.7508 292.954C68.0246 293.798 67.6327 300.104 66.3377 299.607C65.6809 299.355 65.2149 300.076 65.2537 301.283C65.3377 303.874 62.3307 304.729 61.4256 302.372C61.0686 301.443 61.4731 299.62 62.3231 298.322C63.7468 296.15 63.7284 295.96 62.0955 295.928C61.1204 295.908 59.1988 295.27 57.826 294.51C56.13 293.571 54.9418 293.449 54.1238 294.128C52.5208 295.458 48.5416 294.139 49.1746 292.487C49.7193 291.067 47.2348 286.963 45.8309 286.963C44.5728 286.963 35.8231 278.847 35.8231 277.681C35.8231 277.1 37.4871 276.973 39.9481 277.367C43.78 277.98 44.0342 277.878 43.5272 275.938C43.0782 274.221 43.2342 274.059 44.4022 275.028C46.6741 276.914 46.0406 274.471 43.7127 272.369C42.5527 271.321 40.7375 268.625 39.6795 266.377C37.9885 262.785 29.7573 256.441 24.5213 254.696C21.1893 253.585 27.5839 242.826 31.0379 243.73C32.8048 244.192 33.0357 243.965 32.4178 242.374C31.1828 239.197 31.2554 238.448 32.7684 238.778C35.0593 239.276 38.8227 236.801 38.8231 234.794C38.8231 233.715 39.5439 232.963 40.5779 232.963C43.0149 232.963 45.0996 226.438 43.1737 224.839C42.4307 224.223 41.8231 222.9 41.8231 221.9C41.823 220.899 41.3729 219.803 40.8231 219.463C40.2731 219.123 39.8231 217.945 39.8231 216.845C39.8231 215.745 39.4205 215.093 38.9295 215.397C38.4384 215.7 37.0855 214.04 35.9237 211.706C34.7617 209.372 33.2645 206.563 32.5965 205.463C31.9285 204.363 30.3573 201.785 29.1033 199.734C26.2513 195.07 26.2154 191.993 28.9774 189.028C30.8989 186.965 30.957 186.618 29.5194 185.813C28.6324 185.316 28.1605 184.245 28.4735 183.431C28.8615 182.419 27.9015 181.476 25.4315 180.444C23.4467 179.615 21.786 178.38 21.741 177.7C21.499 174.063 20.5431 170.143 19.2762 167.585C18.4912 166.003 18.1172 163.64 18.4442 162.335C18.8492 160.724 18.6035 159.943 17.6805 159.9C16.9341 159.865 17.347 159.425 18.5975 158.923C21.2044 157.876 20.8038 153.423 17.911 151.294C13.1591 147.798 12.87 147.403 13.4549 145.213C13.7859 143.975 14.834 142.963 15.785 142.963C16.735 142.963 18.3281 142.063 19.3231 140.963C20.3181 139.863 21.5542 138.963 22.0682 138.963C22.5823 138.963 23.847 137.951 24.8787 136.713C26.4927 134.779 26.7609 134.71 26.7899 136.223C26.8079 137.191 25.9229 138.753 24.8231 139.695C22.2852 141.868 22.305 142.594 24.9237 143.279C26.0795 143.582 26.7278 144.308 26.3651 144.896C26.0023 145.483 25.92 145.963 26.1815 145.963C26.4445 145.963 27.4328 146.261 28.3778 146.623C29.5896 147.087 29.9501 146.866 29.6024 145.873C29.0314 144.244 32.5938 138.703 33.7518 139.419C34.1787 139.683 35.3646 139.287 36.3875 138.54C38.4045 137.065 37.003 133.964 34.3192 133.963C32.9872 133.963 30.2179 125.51 30.7147 122.963C30.8767 122.138 30.9536 119.741 30.8856 117.637C30.7766 114.238 31.1058 113.683 33.8338 112.653C35.9678 111.847 36.8578 110.879 36.7528 109.478C36.4928 106.022 36.7888 104.824 37.7537 105.42C38.2657 105.737 38.9407 105.581 39.2547 105.073C39.5679 104.566 40.6568 104.368 41.6746 104.635C44.2356 105.304 47.2646 102.201 45.7879 100.421C44.9809 99.4493 44.9929 98.5137 45.8309 96.9487C46.4608 95.7707 46.7305 94.1671 46.4305 93.3852C46.0505 92.3923 46.6314 91.9633 48.3543 91.9633C49.712 91.9632 50.8228 91.5132 50.8231 90.9633C50.8231 90.4135 50.3871 89.9636 49.8543 89.9633C49.3224 89.9633 49.1449 89.2882 49.4608 88.4633C49.7917 87.6015 49.481 86.9636 48.7303 86.9633C47.7133 86.9633 47.6899 86.6961 48.6229 85.7631C49.2829 85.1031 49.8231 83.8148 49.8231 82.9008C49.8233 81.6241 51.1422 81.0827 55.5067 80.5698C58.6325 80.2028 61.7825 79.411 62.5067 78.81C64.2735 77.3441 64.1799 74.9637 62.3543 74.9633C61.4603 74.9633 61.1108 75.5493 61.4608 76.4633C61.8237 77.4082 61.4499 77.9633 60.45 77.9633C58.464 77.9633 58.8759 72.1768 60.9559 70.8598C64.4336 68.656 58.1944 70.1802 53.6815 72.6362C50.1078 74.581 48.4698 75.0103 47.6688 74.2094C46.9258 73.4665 45.7561 73.4182 44.0643 74.061C39.8403 75.667 37.8231 74.3507 37.8231 69.9907C37.8233 65.514 41.1635 63.0775 53.0731 58.8667C60.4397 56.2628 60.5863 56.0654 58.1824 51.9956C56.1924 48.6276 56.994 44.361 59.7821 43.476C62.4579 42.6272 68.8174 43.9249 68.8377 45.3237C68.8797 48.4517 70.4558 49.1528 74.6307 47.9028C79.0287 46.5848 80.5395 44.5322 78.7215 42.3422C77.8406 41.2803 78.116 40.538 79.9549 39.018C81.9907 37.3362 82.4786 37.2654 83.4324 38.5122C85.3604 41.0312 100.442 37.019 99.3865 34.269C98.521 32.0121 103.808 29.185 104.979 31.2778C106.381 33.7828 109.101 33.326 112.231 30.059C115.014 27.1544 115.014 27.1541 112.856 24.9965C109.082 21.2226 112.1 14.3884 117.416 14.6713C123.005 14.9683 123.68 15.1663 123.238 16.3803C123.021 16.9763 123.233 18.0729 123.708 18.8178C124.754 20.4597 129.376 17.8723 130.306 15.1245C130.615 14.2105 133.671 11.332 137.096 8.72701C140.516 6.12608 143.361 3.99002 143.424 3.97701ZM208.763 322.963C209.345 322.963 209.823 323.413 209.823 323.963C209.823 324.513 209.625 324.963 209.382 324.963C209.139 324.963 208.663 324.513 208.323 323.963C207.983 323.413 208.182 322.964 208.763 322.963ZM116.823 315.345C116.823 314.52 117.273 314.123 117.823 314.463C118.373 314.803 118.823 315.757 118.823 316.582C118.823 317.406 118.373 317.803 117.823 317.463C117.273 317.123 116.823 316.17 116.823 315.345ZM202.323 313.963C202.598 313.963 202.823 314.188 202.823 314.463C202.823 314.738 202.598 314.963 202.323 314.963C202.048 314.963 201.823 314.738 201.823 314.463C201.823 314.188 202.048 313.963 202.323 313.963ZM74.7635 305.963C75.3455 305.963 75.8231 306.413 75.8231 306.963C75.823 307.513 75.6246 307.963 75.3817 307.963C75.1386 307.963 74.6629 307.513 74.3231 306.963C73.9831 306.413 74.1818 305.964 74.7635 305.963ZM71.8231 304.963C72.373 304.963 72.8231 305.413 72.8231 305.963C72.823 306.513 72.3729 306.963 71.8231 306.963C71.2731 306.963 70.8232 306.513 70.8231 305.963C70.8231 305.413 71.2731 304.963 71.8231 304.963ZM131.823 306.07C131.823 304.426 129.038 304.086 127.17 305.5C125.465 306.792 125.573 306.902 128.573 306.931C130.36 306.949 131.823 306.561 131.823 306.07ZM86.8231 303.963C87.5559 303.963 87.856 304.263 87.4901 304.63C87.1231 304.996 86.5231 304.996 86.1561 304.63C85.7901 304.263 86.0901 303.963 86.8231 303.963ZM77.2401 304.042C78.294 303.999 78.8836 304.235 78.5516 304.567C78.2196 304.899 77.3566 304.935 76.6356 304.646C75.838 304.327 76.0752 304.09 77.2401 304.042ZM78.8231 300.963C79.373 300.963 79.8231 301.413 79.8231 301.963C79.823 302.513 79.3729 302.963 78.8231 302.963C78.2731 302.963 77.8232 302.513 77.8231 301.963C77.8231 301.413 78.2731 300.963 78.8231 300.963ZM70.3231 299.963C71.148 299.963 71.8231 300.624 71.8231 301.432C71.8231 302.326 71.2371 302.675 70.3231 302.325C69.4981 302.008 68.8231 301.347 68.8231 300.856C68.8233 300.365 69.4982 299.963 70.3231 299.963ZM69.8231 291.963C70.3727 291.963 70.8226 292.161 70.8231 292.404C70.8231 292.647 70.3731 293.123 69.8231 293.463C69.2731 293.803 68.8231 293.604 68.8231 293.022C68.8232 292.44 69.2731 291.963 69.8231 291.963ZM270.323 285.963C271.148 285.963 271.823 286.133 271.823 286.341C271.823 286.548 271.148 287.279 270.323 287.963C269.094 288.983 268.823 288.914 268.823 287.585C268.823 286.693 269.498 285.963 270.323 285.963ZM275.323 284.963C275.598 284.963 275.823 285.188 275.823 285.463C275.823 285.738 275.598 285.963 275.323 285.963C275.048 285.963 274.823 285.738 274.823 285.463C274.823 285.188 275.048 284.963 275.323 284.963ZM273.515 281.322C274.055 279.913 274.222 279.924 275.064 281.429C276.122 283.319 275.489 284.493 273.932 283.531C273.371 283.182 273.183 282.189 273.515 281.322ZM269.981 280.963C269.981 279.588 270.208 279.026 270.485 279.713C270.763 280.401 270.763 281.526 270.485 282.213C270.208 282.901 269.981 282.338 269.981 280.963ZM272.323 279.963C272.598 279.963 272.823 280.188 272.823 280.463C272.823 280.738 272.598 280.963 272.323 280.963C272.048 280.963 271.823 280.738 271.823 280.463C271.823 280.188 272.048 279.963 272.323 279.963ZM266.479 278.508C266.109 277.545 266.407 277.251 267.374 277.622C269.054 278.267 269.168 278.632 267.928 279.398C267.435 279.703 266.783 279.302 266.479 278.508ZM273.323 277.963C273.598 277.963 273.823 278.188 273.823 278.463C273.823 278.738 273.598 278.963 273.323 278.963C273.048 278.963 272.823 278.738 272.823 278.463C272.823 278.188 273.048 277.963 273.323 277.963ZM312.823 274.963C312.823 274.23 313.123 273.93 313.49 274.296C313.856 274.663 313.856 275.263 313.49 275.63C313.123 275.996 312.823 275.696 312.823 274.963ZM306.823 264.522C306.823 262.765 307.423 262.507 308.28 263.894C308.597 264.406 308.398 265.108 307.839 265.454C307.28 265.798 306.823 265.379 306.823 264.522ZM39.241 257.57C36.868 256.659 36.5506 256.812 37.2156 258.545C37.5496 259.415 37.8231 260.315 37.8231 260.545C37.8235 260.775 38.4984 260.963 39.3231 260.963C41.3139 260.963 41.251 258.341 39.241 257.57ZM294.721 251.963C296.379 251.963 302.87 258.076 302.261 259.064C300.769 261.477 295.519 258.26 294.343 254.213C293.964 252.911 294.123 251.964 294.721 251.963ZM274.323 255.963C274.048 255.963 273.823 256.188 273.823 256.463C273.823 256.738 274.048 256.963 274.323 256.963C274.598 256.963 274.823 256.738 274.823 256.463C274.823 256.188 274.598 255.963 274.323 255.963ZM268.323 252.963C268.048 252.963 267.823 253.188 267.823 253.463C267.823 253.738 268.048 253.963 268.323 253.963C268.598 253.963 268.823 253.738 268.823 253.463C268.823 253.188 268.598 252.963 268.323 252.963ZM266.646 249.296C266.257 247.287 264.26 246.448 263.356 247.911C262.476 249.334 263.598 250.963 265.455 250.963C266.331 250.963 266.833 250.26 266.646 249.296ZM269.323 249.963C269.048 249.963 268.823 250.188 268.823 250.463C268.823 250.738 269.048 250.963 269.323 250.963C269.598 250.963 269.823 250.738 269.823 250.463C269.823 250.188 269.598 249.963 269.323 249.963ZM24.3231 232.963C24.598 232.963 24.8231 233.188 24.8231 233.463C24.823 233.738 24.5979 233.963 24.3231 233.963C24.0481 233.963 23.8232 233.738 23.8231 233.463C23.8231 233.188 24.0481 232.963 24.3231 232.963ZM26.3231 232.963C26.598 232.963 26.8231 233.188 26.8231 233.463C26.823 233.738 26.5979 233.963 26.3231 233.963C26.0481 233.963 25.8232 233.738 25.8231 233.463C25.8231 233.188 26.0481 232.963 26.3231 232.963ZM30.3231 182.963C30.0481 182.963 29.8231 183.188 29.8231 183.463C29.8232 183.738 30.0481 183.963 30.3231 183.963C30.5979 183.963 30.823 183.738 30.8231 183.463C30.8231 183.188 30.598 182.963 30.3231 182.963ZM25.8231 182.963C26.5559 182.963 26.856 183.263 26.4901 183.63C26.1231 183.996 25.5231 183.996 25.1561 183.63C24.7901 183.263 25.0901 182.963 25.8231 182.963ZM24.5418 168.045C24.7068 165.852 23.3077 164.369 22.4237 165.799C22.1289 166.277 22.4496 167.439 23.1375 168.378C24.2905 169.956 24.3998 169.93 24.5418 168.045ZM26.3231 165.963C26.0481 165.963 25.8231 166.188 25.8231 166.463C25.8232 166.738 26.0481 166.963 26.3231 166.963C26.5979 166.963 26.823 166.738 26.8231 166.463C26.8231 166.188 26.598 165.963 26.3231 165.963ZM278.023 154.164C281.374 150.813 285.386 154.145 284.39 159.453C283.619 163.564 281.534 164.032 278.766 160.713C276.583 158.097 276.33 155.857 278.023 154.164ZM0.823065 156.963C1.55594 156.963 1.85603 157.263 1.49006 157.63C1.12312 157.996 0.523086 157.996 0.156073 157.63C-0.209927 157.263 0.0900652 156.963 0.823065 156.963ZM286.917 147.963C287.415 147.963 287.823 148.863 287.823 149.963C287.823 151.063 287.65 151.962 287.44 151.963C287.229 151.963 286.821 151.063 286.533 149.963C286.246 148.863 286.418 147.963 286.917 147.963ZM285.323 145.963C285.598 145.963 285.823 146.188 285.823 146.463C285.823 146.738 285.598 146.963 285.323 146.963C285.048 146.963 284.823 146.738 284.823 146.463C284.823 146.188 285.048 145.963 285.323 145.963ZM293.205 142.963C293.48 142.963 293.983 143.413 294.323 143.963C294.663 144.513 294.716 144.963 294.441 144.963C294.166 144.963 293.663 144.513 293.323 143.963C292.983 143.413 292.93 142.963 293.205 142.963ZM18.6795 133.08C18.8755 133.016 18.7986 133.583 18.5076 134.341C18.2168 135.099 18.5072 136.25 19.1512 136.898C20.0502 137.802 19.7528 137.866 17.8738 137.174C14.8158 136.047 14.1344 134.282 16.5184 133.664C17.5105 133.407 18.4825 133.144 18.6795 133.08ZM27.4901 131.63C28.6061 130.513 29.4901 130.881 29.4901 132.463C29.49 133.288 28.8899 133.963 28.1561 133.963C26.7371 133.963 26.3861 132.734 27.4901 131.63ZM293.763 131.963C294.345 131.963 294.823 132.413 294.823 132.963C294.823 133.513 294.625 133.963 294.382 133.963C294.139 133.963 293.663 133.513 293.323 132.963C292.983 132.413 293.182 131.964 293.763 131.963ZM296.323 132.963C296.598 132.963 296.823 133.188 296.823 133.463C296.823 133.738 296.598 133.963 296.323 133.963C296.048 133.963 295.823 133.738 295.823 133.463C295.823 133.188 296.048 132.963 296.323 132.963ZM20.8231 128.963C21.373 128.963 21.8231 129.638 21.8231 130.463C21.823 131.288 21.3729 131.963 20.8231 131.963C20.2731 131.963 19.8231 131.288 19.8231 130.463C19.8231 129.638 20.2731 128.963 20.8231 128.963ZM302.823 129.091C306.081 127.786 307.823 127.729 307.823 128.928C307.823 130.677 303.932 132.124 302.06 131.07C300.503 130.194 300.582 129.989 302.823 129.091ZM14.3885 125.861C17.5155 124.636 18.4666 124.918 16.4256 126.463C15.3817 127.253 14.062 127.611 13.492 127.258C12.8941 126.889 13.2737 126.298 14.3885 125.861ZM290.882 124.963C291.4 124.963 291.823 125.413 291.823 125.963C291.823 126.513 291.12 126.963 290.263 126.963C289.407 126.963 288.983 126.513 289.323 125.963C289.663 125.413 290.364 124.963 290.882 124.963ZM253.323 104.963C253.048 104.963 252.823 105.188 252.823 105.463C252.823 105.738 253.048 105.963 253.323 105.963C253.598 105.963 253.823 105.738 253.823 105.463C253.823 105.188 253.598 104.963 253.323 104.963ZM38.3231 101.963C38.598 101.963 38.8231 102.188 38.8231 102.463C38.823 102.738 38.5979 102.963 38.3231 102.963C38.0481 102.963 37.8232 102.738 37.8231 102.463C37.8231 102.188 38.0481 101.963 38.3231 101.963ZM43.3231 100.963C43.598 100.963 43.8231 101.188 43.8231 101.463C43.823 101.738 43.5979 101.963 43.3231 101.963C43.0481 101.963 42.8232 101.738 42.8231 101.463C42.8231 101.188 43.0481 100.963 43.3231 100.963ZM32.0731 95.9458C33.86 94.8529 35.9221 94.1854 36.6551 94.4614C37.3872 94.7374 38.7372 94.9995 39.6551 95.0424C40.6539 95.0895 40.8314 95.3207 40.0975 95.6176C39.4238 95.8904 38.6452 95.9673 38.367 95.7885C38.089 95.6095 37.152 96.4753 36.286 97.7133C35.258 99.1803 33.6844 99.9633 31.7654 99.9633C27.9139 99.9632 28.0332 98.4167 32.0731 95.9458ZM260.323 98.9633C260.598 98.9634 260.823 99.1884 260.823 99.4633C260.823 99.7382 260.598 99.9632 260.323 99.9633C260.048 99.9633 259.823 99.7383 259.823 99.4633C259.823 99.1883 260.048 98.9633 260.323 98.9633ZM42.3231 97.9633C42.598 97.9634 42.8231 98.1884 42.8231 98.4633C42.823 98.7382 42.5979 98.9632 42.3231 98.9633C42.0481 98.9633 41.8232 98.7383 41.8231 98.4633C41.8231 98.1883 42.0481 97.9633 42.3231 97.9633ZM54.6434 89.7915C54.2964 87.4396 52.372 86.2652 51.411 87.8198C50.504 89.2878 51.8519 91.9633 53.4998 91.9633C54.4317 91.9633 54.8462 91.1762 54.6434 89.7915ZM239.323 74.9633C239.598 74.9634 239.823 75.1884 239.823 75.4633C239.823 75.7382 239.598 75.9632 239.323 75.9633C239.048 75.9633 238.823 75.7383 238.823 75.4633C238.823 75.1883 239.048 74.9633 239.323 74.9633ZM273.823 72.9594C273.823 72.4464 274.498 72.2376 275.323 72.4946C276.148 72.7526 277.573 73.2036 278.49 73.4965C279.664 73.8715 279.843 74.3424 279.097 75.0883C277.917 76.2677 273.824 74.6152 273.823 72.9594ZM69.8074 71.2133C69.8294 69.4163 68.1488 69.6726 67.4178 71.5766C67.0247 72.6002 66.0719 73.0001 64.8113 72.6704C63.7187 72.3845 62.8236 72.5091 62.8231 72.9477C62.8231 73.3867 64.0183 74.0465 65.4783 74.4135C68.145 75.0822 69.7744 73.878 69.8074 71.2133ZM244.382 68.9633C244.139 68.9636 243.663 69.4135 243.323 69.9633C242.983 70.5132 243.182 70.9631 243.763 70.9633C244.345 70.9633 244.823 70.5133 244.823 69.9633C244.823 69.4133 244.625 68.9633 244.382 68.9633ZM241.323 67.9633C241.048 67.9633 240.823 68.1883 240.823 68.4633C240.823 68.7383 241.048 68.9633 241.323 68.9633C241.598 68.9632 241.823 68.7382 241.823 68.4633C241.823 68.1884 241.598 67.9634 241.323 67.9633ZM144.24 46.0424C143.075 46.0904 142.838 46.327 143.636 46.646C144.357 46.935 145.22 46.8988 145.552 46.5669C145.884 46.2349 145.294 45.9995 144.24 46.0424ZM181.823 43.9633C181.09 43.9633 180.79 44.2633 181.156 44.6303C181.523 44.9962 182.123 44.9963 182.49 44.6303C182.856 44.2634 182.556 43.9634 181.823 43.9633ZM147.345 34.3335C146.209 33.8976 145.532 34.3585 145.147 35.8335C144.84 37.0054 143.967 37.9633 143.206 37.9633C142.446 37.9633 141.823 38.4133 141.823 38.9633C141.823 40.4821 144.417 40.1582 145.823 38.4633C146.508 37.6384 148.111 36.9635 149.386 36.9633C150.661 36.9633 151.983 36.5133 152.323 35.9633C152.663 35.4133 152.051 34.9633 150.964 34.9633C149.876 34.9633 148.247 34.6804 147.345 34.3335ZM138.947 36.6958C137.959 35.7159 137.845 35.8314 138.387 37.2563C138.763 38.2423 139.322 38.7967 139.63 38.4887C139.938 38.1817 139.631 37.3747 138.947 36.6958ZM160.323 29.9633C160.598 29.9634 160.823 30.1884 160.823 30.4633C160.823 30.7382 160.598 30.9632 160.323 30.9633C160.048 30.9633 159.823 30.7382 159.823 30.4633C159.823 30.1883 160.048 29.9633 160.323 29.9633ZM205.823 28.9633C206.556 28.9634 206.856 29.2634 206.49 29.6303C206.123 29.9963 205.523 29.9961 205.156 29.6303C204.79 29.2633 205.09 28.9633 205.823 28.9633ZM210.823 24.9633C211.373 24.9634 211.823 25.161 211.823 25.4038C211.823 25.6468 211.373 26.1233 210.823 26.4633C210.273 26.8033 209.823 26.6039 209.823 26.0219C209.823 25.44 210.273 24.9633 210.823 24.9633ZM176.323 24.9633C176.598 24.9634 176.823 25.1884 176.823 25.4633C176.823 25.7382 176.598 25.9632 176.323 25.9633C176.048 25.9633 175.823 25.7382 175.823 25.4633C175.823 25.1883 176.048 24.9633 176.323 24.9633ZM172.823 18.9633C173.556 18.9634 173.856 19.2634 173.49 19.6303C173.123 19.9963 172.523 19.9961 172.156 19.6303C171.79 19.2633 172.09 18.9633 172.823 18.9633ZM173.823 15.9633C173.823 15.2303 174.123 14.9303 174.49 15.2963C174.856 15.6634 174.856 16.2634 174.49 16.6303C174.123 16.9963 173.823 16.6962 173.823 15.9633ZM208.823 13.9633C209.556 13.9634 209.856 14.2634 209.49 14.6303C209.123 14.9963 208.523 14.9962 208.156 14.6303C207.79 14.2633 208.09 13.9633 208.823 13.9633ZM177.323 12.9633C177.598 12.9634 177.823 13.1884 177.823 13.4633C177.823 13.7382 177.598 13.9632 177.323 13.9633C177.048 13.9633 176.823 13.7382 176.823 13.4633C176.823 13.1883 177.048 12.9633 177.323 12.9633ZM166.323 10.9633C166.598 10.9634 166.823 11.1884 166.823 11.4633C166.823 11.7382 166.598 11.9632 166.323 11.9633C166.048 11.9633 165.823 11.7382 165.823 11.4633C165.823 11.1883 166.048 10.9633 166.323 10.9633ZM175.823 10.9633C175.823 10.2303 176.123 9.93035 176.49 10.2963C176.856 10.6634 176.856 11.2634 176.49 11.6303C176.123 11.9963 175.823 11.6962 175.823 10.9633ZM171.323 9.96334C171.598 9.96343 171.823 10.1884 171.823 10.4633C171.823 10.7382 171.598 10.9632 171.323 10.9633C171.048 10.9633 170.823 10.7382 170.823 10.4633C170.823 10.1883 171.048 9.96334 171.323 9.96334ZM132.382 6.96334C132.625 6.96334 132.823 7.41334 132.823 7.96334C132.823 8.51325 132.345 8.96334 131.763 8.96334C131.182 8.96314 130.983 8.51318 131.323 7.96334C131.663 7.41353 132.139 6.96364 132.382 6.96334ZM122.823 7.96334C123.556 7.96339 123.856 8.26336 123.49 8.63033C123.123 8.99625 122.523 8.99614 122.156 8.63033C121.79 8.26333 122.09 7.96334 122.823 7.96334ZM167.204 2.311C170.133 -0.207938 172.823 -0.770742 172.823 1.13424C172.823 2.86018 169.742 5.96305 168.028 5.96334C167.212 5.96334 166.002 6.70389 165.34 7.60885C164.278 9.06077 164.156 8.98412 164.305 6.95846C164.398 5.69446 165.703 3.603 167.204 2.311Z" fill="var(--stroke-0, #F3617D)"/>
</g>
<path id="stroke0_0_228_ref" d="M16.7178 3.74398C16.5642 3.74927 16.0509 3.8165 15.6773 4.01583C15.4232 4.15136 15.2386 4.40672 15.0632 4.63865C14.8757 4.88663 14.7302 5.2413 14.5908 5.60469C14.3703 6.17906 14.5069 6.7008 14.5691 6.88936C14.6331 7.03391 14.683 7.18923 14.7403 7.34349C14.7574 7.3864 14.7761 7.43495 14.8042 7.56812M30.8757 7.25048C30.9624 7.12318 31.2236 6.67804 31.3266 6.29453C31.3967 6.03377 31.3567 5.7822 31.3249 5.54746C31.2908 5.29649 31.1704 5.03759 31.0414 4.78014C30.8375 4.37322 30.4554 4.27821 30.3098 4.25436C30.1886 4.24934 30.0694 4.22858 29.9466 4.2143C29.9117 4.21126 29.8727 4.20726 29.7791 4.17753M26.2417 7.60793C26.0593 7.60793 25.3341 7.76892 25.2866 8.07861C25.2525 8.30042 25.1564 8.62041 25.2121 8.8695C25.2568 9.06922 25.5706 9.10224 25.752 9.14647C25.7978 9.15454 25.8437 9.15933 25.929 9.16179C26.0142 9.16426 26.1375 9.16426 26.2644 9.16426M20.3016 7.60793C20.1193 7.60793 19.3941 7.76892 19.3465 8.07861C19.3124 8.30042 19.2163 8.62041 19.272 8.8695C19.3167 9.06922 19.6306 9.10224 19.8119 9.14647C19.8577 9.15454 19.9036 9.15933 19.9889 9.16179C20.0742 9.16426 20.1974 9.16426 20.3244 9.16426M25.6199 11.6753C25.6086 11.6753 25.2858 11.5494 24.6279 11.3213C23.9498 11.0862 23.4004 11.0438 23.0177 11.0066C22.5361 10.9597 22.1677 11.0123 21.9496 11.0885C21.6608 11.1893 21.2196 11.463 20.6852 11.831C20.2101 12.1582 19.9928 12.4704 19.8836 12.6473C19.7523 12.8597 19.5952 13.4792 19.3969 14.335C19.2541 14.9514 19.2497 15.3513 19.2571 15.5819C19.2617 15.7229 19.3925 15.9022 19.632 16.2016C19.941 16.588 20.4702 16.9765 20.9346 17.3218C21.1486 17.4809 21.3272 17.5242 21.7434 17.576C22.5025 17.6706 23.0316 17.6065 23.2565 17.5499C23.4418 17.5034 23.7671 17.4045 24.1151 17.2804C24.8303 17.0251 25.317 16.7564 25.5305 16.5899C25.9127 16.2919 26.2881 15.8124 26.5574 15.2376C26.6173 15.1049 26.653 15.0364 26.6827 14.9857C26.7124 14.9349 26.735 14.9039 26.7762 14.8718M23.3707 13.0818C23.2309 13.0892 22.869 13.1154 22.7108 13.1972C22.5664 13.2718 22.4863 13.4382 22.4053 13.8193C22.3598 14.0336 22.424 14.189 22.4925 14.2761C22.7109 14.4628 22.9263 14.5774 23.1623 14.6123C23.2772 14.6176 23.4644 14.6214 23.6757 14.6347M18.2393 19.3037C20.0791 20.3362 20.483 20.4483 21.3894 20.5451C23.1091 20.7289 24.3864 20.6158 24.7547 20.5349C25.8427 20.1607 27.0965 19.7135 27.8088 19.448C28.0192 19.3501 28.2837 19.2121 28.6481 19.0655M19.4728 27.0886C19.4728 27.1566 19.493 27.4481 19.6794 28.5822C19.7509 29.0179 19.6959 29.2604 19.6298 29.4178C19.4649 29.8103 19.0202 30.0141 17.8664 30.3689C17.0649 30.6155 16.3396 30.5708 15.8689 30.5508C15.1179 30.5189 14.4806 30.0108 13.3903 29.3647C12.4709 28.7144 12.1705 28.454 11.9702 28.2276C11.9352 28.1787 11.8992 28.1272 11.8299 28.028M26.5904 27.0886C26.5904 27.1566 26.5701 27.4481 26.3838 28.5822C26.3122 29.0179 26.3672 29.2604 26.4334 29.4178C26.5982 29.8103 27.0429 30.0141 28.1967 30.3689C28.9983 30.6155 29.7235 30.5708 30.1942 30.5508C30.9452 30.5189 31.5826 30.0108 32.6728 29.3647C33.5922 28.7144 33.8926 28.454 34.0929 28.2276C34.128 28.1787 34.1639 28.1272 34.2332 28.028M16.8549 36.3113C17.6473 36.3113 19.5502 36.4114 20.6674 37.0404C21.3571 37.4288 21.7263 38.2623 21.9766 38.8495C22.0022 38.9517 22.0192 39.0497 22.0366 39.151C22.054 39.2522 22.0712 39.3537 22.1144 39.6533M24.608 39.9862C24.6407 39.8568 24.9024 39.3006 25.8358 38.2051C26.7609 37.3773 27.7694 36.719 28.3087 36.5337C28.4419 36.5128 28.588 36.5125 28.7386 36.5121M27.0558 2.80424C27.0742 2.79032 27.0925 2.7764 27.1109 2.76247L27.2045 2.69515C28.024 2.09608 29.081 1.79265 30.1029 1.82601C31.2087 1.8559 32.2565 2.31572 33.0131 3.10318C35.1052 5.2477 34.4263 8.4027 32.3014 10.2844C32.3174 11.1418 32.3549 12.0067 32.2729 12.8678C32.0977 14.7052 31.1421 15.8876 31.5856 17.777C31.8265 19.0693 33.4049 19.5577 34.4726 20.2175C37.381 22.0147 36.8496 25.2484 35.133 27.7152C34.7116 28.2421 34.482 28.5587 34.1074 29.0985C32.7695 32.035 33.3142 31.7051 35.3265 33.9449C38.0258 36.949 37.8591 42.159 33.5539 43.6888C30.6269 44.7288 24.6075 44.1625 24.247 40.3108C23.3017 40.2195 22.7455 40.222 21.795 40.2953C21.3726 42.3586 20.171 43.274 18.1756 43.8066C12.9699 45.1961 7.75866 42.6301 9.09425 36.7891C9.68508 33.9617 11.9462 33.3134 12.6752 31.4246C12.512 30.4412 12.3799 30.0896 11.9683 29.1734C11.9912 29.1952 11.0312 27.946 10.9369 27.8305C9.94981 26.4066 9.26361 24.7357 9.50224 23.0229C9.83938 20.6028 11.8321 20.1323 13.5028 18.9891C15.2817 17.772 14.1526 15.1598 13.8612 13.548C13.6608 12.4807 13.6191 11.3907 13.7374 10.3118C12.795 9.41481 12.2199 8.78467 11.8993 7.51158C11.3031 5.14352 12.3667 2.49002 15.012 1.94861C16.5173 1.64042 17.7026 2.00405 18.9648 2.79151C21.7301 1.42163 24.296 1.61342 27.0558 2.80424Z"/>
</defs>
</svg>
